HIERARCHY
ROOT mixamorig:Hips
{
	OFFSET 0.000000 201.639420 0.000000
	CHANNELS 6 Xposition Yposition Zposition Xrotation Yrotation Zrotation
	JOINT mixamorig:Spine
	{
		OFFSET 0.006200 19.524994 -2.481800
		CHANNELS 3 Xrotation Yrotation Zrotation
		JOINT mixamorig:Spine1
		{
			OFFSET -0.000900 22.835007 -2.825400
			CHANNELS 3 Xrotation Yrotation Zrotation
			JOINT mixamorig:Spine2
			{
				OFFSET -0.020600 26.552490 -3.193300
				CHANNELS 3 Xrotation Yrotation Zrotation
				JOINT mixamorig:Neck
				{
					OFFSET -0.060000 30.701813 1.352200
					CHANNELS 3 Xrotation Yrotation Zrotation
					JOINT mixamorig:Head
					{
						OFFSET -0.087200 22.547607 3.670900
						CHANNELS 3 Xrotation Yrotation Zrotation
						JOINT mixamorig:HeadTop_End
						{
							OFFSET -0.830600 40.355194 7.893500
							CHANNELS 3 Xrotation Yrotation Zrotation
							End Site
							{
								OFFSET 0.000000 30.592346 0.000000
							}
						}
						JOINT mixamorig:RightEye
						{
							OFFSET -6.302100 18.118591 16.197100
							CHANNELS 3 Xrotation Yrotation Zrotation
							End Site
							{
								OFFSET 0.000000 30.592346 0.000000
							}
						}
						JOINT mixamorig:LeftEye
						{
							OFFSET 6.741500 18.382690 16.401899
							CHANNELS 3 Xrotation Yrotation Zrotation
							End Site
							{
								OFFSET 0.000000 30.592346 0.000000
							}
						}
					}
				}
				JOINT mixamorig:LeftShoulder
				{
					OFFSET 11.924900 18.230499 1.425400
					CHANNELS 3 Xrotation Yrotation Zrotation
					JOINT mixamorig:LeftArm
					{
						OFFSET 25.435989 -0.697632 -5.229300
						CHANNELS 3 Xrotation Yrotation Zrotation
						JOINT mixamorig:LeftForeArm
						{
							OFFSET 54.684776 0.000000 0.000000
							CHANNELS 3 Xrotation Yrotation Zrotation
							JOINT mixamorig:LeftHand
							{
								OFFSET 55.098175 0.000000 0.000000
								CHANNELS 3 Xrotation Yrotation Zrotation
								JOINT mixamorig:LeftHandMiddle1
								{
									OFFSET 23.369751 0.000000 0.000000
									CHANNELS 3 Xrotation Yrotation Zrotation
									JOINT mixamorig:LeftHandMiddle2
									{
										OFFSET 6.378677 0.000000 0.000000
										CHANNELS 3 Xrotation Yrotation Zrotation
										JOINT mixamorig:LeftHandMiddle3
										{
											OFFSET 6.148331 0.000000 0.000000
											CHANNELS 3 Xrotation Yrotation Zrotation
											JOINT mixamorig:LeftHandMiddle4
											{
												OFFSET 6.582504 0.000000 0.000000
												CHANNELS 3 Xrotation Yrotation Zrotation
												End Site
												{
													OFFSET -1.168900 6.395691 1.028606
												}
											}
										}
									}
								}
								JOINT mixamorig:LeftHandThumb1
								{
									OFFSET 7.235672 -3.848206 5.434273
									CHANNELS 3 Xrotation Yrotation Zrotation
									JOINT mixamorig:LeftHandThumb2
									{
										OFFSET 6.568451 -3.792297 3.792300
										CHANNELS 3 Xrotation Yrotation Zrotation
										JOINT mixamorig:LeftHandThumb3
										{
											OFFSET 6.063080 -3.500519 3.500518
											CHANNELS 3 Xrotation Yrotation Zrotation
											JOINT mixamorig:LeftHandThumb4
											{
												OFFSET 4.793182 -2.767334 2.767349
												CHANNELS 3 Xrotation Yrotation Zrotation
												End Site
												{
													OFFSET 0.101639 6.054260 1.275483
												}
											}
										}
									}
								}
								JOINT mixamorig:LeftHandIndex1
								{
									OFFSET 23.101074 -0.309540 4.992809
									CHANNELS 3 Xrotation Yrotation Zrotation
									JOINT mixamorig:LeftHandIndex2
									{
										OFFSET 6.226883 0.000000 0.000000
										CHANNELS 3 Xrotation Yrotation Zrotation
										JOINT mixamorig:LeftHandIndex3
										{
											OFFSET 6.094330 0.000000 0.000000
											CHANNELS 3 Xrotation Yrotation Zrotation
											JOINT mixamorig:LeftHandIndex4
											{
												OFFSET 5.482605 0.000000 0.000000
												CHANNELS 3 Xrotation Yrotation Zrotation
												End Site
												{
													OFFSET -1.427902 5.233032 0.797164
												}
											}
										}
									}
								}
								JOINT mixamorig:LeftHandRing1
								{
									OFFSET 22.299240 0.021149 -3.964172
									CHANNELS 3 Xrotation Yrotation Zrotation
									JOINT mixamorig:LeftHandRing2
									{
										OFFSET 6.321869 0.000000 0.000000
										CHANNELS 3 Xrotation Yrotation Zrotation
										JOINT mixamorig:LeftHandRing3
										{
											OFFSET 5.899796 0.000000 0.000000
											CHANNELS 3 Xrotation Yrotation Zrotation
											JOINT mixamorig:LeftHandRing4
											{
												OFFSET 6.517899 0.000000 0.000000
												CHANNELS 3 Xrotation Yrotation Zrotation
												End Site
												{
													OFFSET -1.637299 6.232208 0.980890
												}
											}
										}
									}
								}
								JOINT mixamorig:LeftHandPinky1
								{
									OFFSET 20.463791 -0.302338 -8.562233
									CHANNELS 3 Xrotation Yrotation Zrotation
									JOINT mixamorig:LeftHandPinky2
									{
										OFFSET 6.908646 0.000000 0.000000
										CHANNELS 3 Xrotation Yrotation Zrotation
										JOINT mixamorig:LeftHandPinky3
										{
											OFFSET 4.622849 0.000000 0.000000
											CHANNELS 3 Xrotation Yrotation Zrotation
											JOINT mixamorig:LeftHandPinky4
											{
												OFFSET 5.216080 0.000000 0.000000
												CHANNELS 3 Xrotation Yrotation Zrotation
												End Site
												{
													OFFSET -0.606308 5.116241 0.814926
												}
											}
										}
									}
								}
							}
						}
					}
				}
				JOINT mixamorig:RightShoulder
				{
					OFFSET -12.001300 18.284088 1.348900
					CHANNELS 3 Xrotation Yrotation Zrotation
					JOINT mixamorig:RightArm
					{
						OFFSET -25.308500 -0.751312 -5.164599
						CHANNELS 3 Xrotation Yrotation Zrotation
						JOINT mixamorig:RightForeArm
						{
							OFFSET -54.684429 0.000000 0.000000
							CHANNELS 3 Xrotation Yrotation Zrotation
							JOINT mixamorig:RightHand
							{
								OFFSET -55.150291 0.000000 0.000000
								CHANNELS 3 Xrotation Yrotation Zrotation
								JOINT mixamorig:RightHandMiddle1
								{
									OFFSET -23.317566 0.000000 0.000000
									CHANNELS 3 Xrotation Yrotation Zrotation
									JOINT mixamorig:RightHandMiddle2
									{
										OFFSET -6.378403 0.000000 0.000000
										CHANNELS 3 Xrotation Yrotation Zrotation
										JOINT mixamorig:RightHandMiddle3
										{
											OFFSET -6.148193 0.000000 0.000000
											CHANNELS 3 Xrotation Yrotation Zrotation
											JOINT mixamorig:RightHandMiddle4
											{
												OFFSET -6.583389 0.000000 0.000000
												CHANNELS 3 Xrotation Yrotation Zrotation
												End Site
												{
													OFFSET 1.171692 6.395905 1.029786
												}
											}
										}
									}
								}
								JOINT mixamorig:RightHandThumb1
								{
									OFFSET -7.190521 -3.860474 5.435846
									CHANNELS 3 Xrotation Yrotation Zrotation
									JOINT mixamorig:RightHandThumb2
									{
										OFFSET -6.567429 -3.791718 3.791708
										CHANNELS 3 Xrotation Yrotation Zrotation
										JOINT mixamorig:RightHandThumb3
										{
											OFFSET -6.062469 -3.500153 3.500166
											CHANNELS 3 Xrotation Yrotation Zrotation
											JOINT mixamorig:RightHandThumb4
											{
												OFFSET -4.792618 -2.767029 2.767022
												CHANNELS 3 Xrotation Yrotation Zrotation
												End Site
												{
													OFFSET -0.100327 6.053253 1.276754
												}
											}
										}
									}
								}
								JOINT mixamorig:RightHandIndex1
								{
									OFFSET -23.048981 -0.310791 4.992554
									CHANNELS 3 Xrotation Yrotation Zrotation
									JOINT mixamorig:RightHandIndex2
									{
										OFFSET -6.227539 0.000000 0.000000
										CHANNELS 3 Xrotation Yrotation Zrotation
										JOINT mixamorig:RightHandIndex3
										{
											OFFSET -6.095047 0.000000 0.000000
											CHANNELS 3 Xrotation Yrotation Zrotation
											JOINT mixamorig:RightHandIndex4
											{
												OFFSET -5.484772 0.000000 0.000000
												CHANNELS 3 Xrotation Yrotation Zrotation
												End Site
												{
													OFFSET 1.420593 5.237305 0.797056
												}
											}
										}
									}
								}
								JOINT mixamorig:RightHandRing1
								{
									OFFSET -22.246323 0.020569 -3.963762
									CHANNELS 3 Xrotation Yrotation Zrotation
									JOINT mixamorig:RightHandRing2
									{
										OFFSET -6.322128 0.000000 0.000000
										CHANNELS 3 Xrotation Yrotation Zrotation
										JOINT mixamorig:RightHandRing3
										{
											OFFSET -5.900024 0.000000 0.000000
											CHANNELS 3 Xrotation Yrotation Zrotation
											JOINT mixamorig:RightHandRing4
											{
												OFFSET -6.518356 0.000000 0.000000
												CHANNELS 3 Xrotation Yrotation Zrotation
												End Site
												{
													OFFSET 1.636398 6.232697 0.982186
												}
											}
										}
									}
								}
								JOINT mixamorig:RightHandPinky1
								{
									OFFSET -20.411011 -0.303314 -8.561701
									CHANNELS 3 Xrotation Yrotation Zrotation
									JOINT mixamorig:RightHandPinky2
									{
										OFFSET -6.907349 0.000000 0.000000
										CHANNELS 3 Xrotation Yrotation Zrotation
										JOINT mixamorig:RightHandPinky3
										{
											OFFSET -4.623840 0.000000 0.000000
											CHANNELS 3 Xrotation Yrotation Zrotation
											JOINT mixamorig:RightHandPinky4
											{
												OFFSET -5.218353 0.000000 0.000000
												CHANNELS 3 Xrotation Yrotation Zrotation
												End Site
												{
													OFFSET 0.602097 5.118835 0.816273
												}
											}
										}
									}
								}
							}
						}
					}
				}
			}
		}
	}
	JOINT mixamorig:LeftUpLeg
	{
		OFFSET 18.168400 -13.561905 -0.039000
		CHANNELS 3 Xrotation Yrotation Zrotation
		JOINT mixamorig:LeftLeg
		{
			OFFSET 0.577358 -80.825211 -3.695000
			CHANNELS 3 Xrotation Yrotation Zrotation
			JOINT mixamorig:LeftFoot
			{
				OFFSET -0.577356 -83.370262 -6.520700
				CHANNELS 3 Xrotation Yrotation Zrotation
				JOINT mixamorig:LeftToeBase
				{
					OFFSET 0.750401 -20.798306 25.135401
					CHANNELS 3 Xrotation Yrotation Zrotation
					JOINT mixamorig:LeftToe_End
					{
						OFFSET -0.000500 0.001200 19.917799
						CHANNELS 3 Xrotation Yrotation Zrotation
						End Site
						{
							OFFSET 0.000000 19.917805 0.000000
						}
					}
				}
			}
		}
	}
	JOINT mixamorig:RightUpLeg
	{
		OFFSET -18.162500 -13.585098 -0.041000
		CHANNELS 3 Xrotation Yrotation Zrotation
		JOINT mixamorig:RightLeg
		{
			OFFSET -0.595024 -80.945297 -3.631900
			CHANNELS 3 Xrotation Yrotation Zrotation
			JOINT mixamorig:RightFoot
			{
				OFFSET 0.595024 -83.218193 -6.561200
				CHANNELS 3 Xrotation Yrotation Zrotation
				JOINT mixamorig:RightToeBase
				{
					OFFSET -0.753601 -20.807106 25.115000
					CHANNELS 3 Xrotation Yrotation Zrotation
					JOINT mixamorig:RightToe_End
					{
						OFFSET 0.000299 0.001700 19.918200
						CHANNELS 3 Xrotation Yrotation Zrotation
						End Site
						{
							OFFSET 0.000000 19.918203 0.000000
						}
					}
				}
			}
		}
	}
}
MOTION
Frames: 6
Frame Time: 0.033333
15.195930 190.751541 8.075453 -157.924998 57.148381 162.030966 -3.408880 5.307906 7.923718 2.879835 0.734152 -2.341564 2.914231 0.709151 -2.306236 4.003845 5.457259 2.643967 14.588108 31.916484 -10.823375 0.000000 0.000000 -0.000000 0.000000 0.000000 -0.000000 0.000000 0.000000 -0.000000 4.747662 -12.545139 -4.770664 26.042734 11.733028 -53.994944 -0.000048 -71.703674 -0.000042 31.968263 -2.934645 37.031223 0.196474 -1.636313 13.692834 0.000405 0.074616 -0.618389 0.024389 0.580277 -4.814121 -0.000002 -0.000001 0.000000 -1.709307 11.927716 7.384735 4.614797 16.216785 1.362215 0.156763 9.826684 3.328260 0.000001 0.000000 -0.000000 0.255285 -1.861072 15.619744 0.000001 0.000000 -0.000002 0.008623 0.345220 -2.861891 -0.000001 0.000003 0.000002 0.135854 -1.363771 11.377555 0.002374 0.181105 -1.501016 0.055473 0.874072 -7.262887 -0.000000 0.000001 0.000000 -0.597488 2.841269 10.122466 -0.007372 -3.726567 -3.227202 0.082807 1.066824 -8.876575 0.000000 -0.000002 0.000001 1.675861 6.351876 -2.048833 -6.956756 66.025636 -1.768905 -0.000000 32.527290 -0.000007 -9.470266 2.431967 6.932064 0.339067 -2.148797 17.931926 0.308613 -2.052380 17.100999 0.281977 -1.963756 16.340939 0.000002 0.000001 0.000001 -2.048920 -12.558907 -8.004013 5.443093 -17.651232 -0.837876 -0.473925 -8.858971 -3.028531 0.000001 -0.000002 -0.000000 0.163045 -1.499881 12.407127 0.136231 -1.372391 11.337289 0.123721 -1.308443 10.802427 -0.000000 0.000000 0.000000 0.651038 -2.942478 24.947037 0.611054 -2.855092 24.156455 0.568495 -2.758340 23.287308 -0.000002 0.000000 0.000003 0.981918 -3.567495 30.769347 0.904834 -3.434985 29.507076 0.867386 -3.368072 28.876076 -0.000002 0.000001 0.000000 -1.146176 4.704773 -5.450282 34.395678 1.917362 -1.628731 -21.341392 -2.501495 6.355766 -0.003285 -0.000005 0.000001 0.000000 0.000002 -0.000000 -8.928399 -9.743948 -3.864516 40.008492 8.900720 -8.423321 -20.218876 9.606711 4.390855 -5.309330 0.000030 0.000003 -0.000000 -0.000001 -0.000000 
14.402285 190.872772 9.375181 -162.648579 51.610555 167.288531 -1.650706 2.370677 9.035754 2.763051 0.349000 -2.207866 2.780770 0.311545 -2.191064 2.320161 5.874330 1.654752 13.975870 32.652389 -13.936037 -0.000000 0.000001 -0.000000 -0.000000 0.000001 -0.000000 -0.000000 0.000001 -0.000000 5.055972 -13.564612 -4.606484 24.446222 11.025864 -52.347007 -0.000010 -60.214060 -0.000017 29.692953 -4.888209 34.428040 0.200136 -1.651266 13.820499 0.000381 0.072590 -0.601641 0.024035 0.576001 -4.778709 -0.000000 0.000000 -0.000000 -1.709307 11.927716 7.384735 4.614800 16.216783 1.362216 0.156762 9.826684 3.328260 0.000001 0.000000 0.000000 0.259474 -1.875985 15.748283 0.000001 0.000001 0.000010 0.008430 0.341340 -2.829784 -0.000000 0.000002 -0.000000 0.138911 -1.378863 11.505179 0.002219 0.175118 -1.451212 0.055041 0.870643 -7.234258 -0.000001 -0.000001 0.000001 -0.603830 2.824409 10.250857 -0.007805 -3.734310 -3.163032 0.082210 1.062988 -8.844461 0.000001 -0.000003 -0.000000 1.350819 4.621685 -3.201741 -2.342215 63.070964 -9.254394 -0.000002 45.782966 0.000012 -11.267286 1.565766 5.290058 0.357569 -2.205124 18.419009 0.317677 -2.081595 17.352382 0.286136 -1.977886 16.461669 0.000002 -0.000004 0.000009 -2.048919 -12.558907 -8.004020 5.443093 -17.651232 -0.837875 -0.473925 -8.858973 -3.028529 -0.000002 0.000001 -0.000001 0.175429 -1.555114 12.871887 0.141856 -1.400123 11.569642 0.126386 -1.322318 10.918593 -0.000000 -0.000001 -0.000001 0.677946 -2.999579 25.466077 0.624474 -2.884763 24.424335 0.574708 -2.772672 23.415975 -0.000000 0.000002 -0.000000 1.016322 -3.624550 31.317763 0.921313 -3.463903 29.781209 0.875468 -3.382643 29.013127 -0.000001 0.000001 0.000002 -2.220183 4.898390 -5.512764 34.068526 4.896642 -2.484322 -21.257890 -2.444256 5.977797 -0.000030 -0.000020 -0.000005 0.000000 -0.000002 0.000000 -9.938084 -9.516722 -3.684997 40.056679 8.828849 -8.420232 -20.205448 8.774913 4.098178 -5.243774 0.000001 0.000005 -0.000001 -0.000000 -0.000000 
13.646822 191.078766 11.033177 -165.723899 46.156195 170.942559 0.322473 -0.155006 10.164334 2.613575 0.012265 -2.025750 2.614882 -0.036354 -2.022561 0.341048 6.301098 0.471414 13.160168 32.887556 -16.800479 -0.000000 -0.000000 0.000000 -0.000000 -0.000000 0.000000 -0.000000 -0.000000 0.000000 5.347540 -14.534151 -4.524478 21.274340 9.428309 -50.134285 -0.000005 -47.388191 -0.000017 29.065669 -8.339920 31.696432 0.192078 -1.618171 13.537849 0.000433 0.077091 -0.638695 0.024828 0.585438 -4.857120 -0.000000 0.000001 0.000001 -1.709306 11.927715 7.384734 4.614795 16.216785 1.362217 0.156762 9.826683 3.328259 -0.000001 -0.000000 0.000000 0.250245 -1.842959 15.463692 0.000001 -0.000004 -0.000073 0.008859 0.349927 -2.900860 0.000000 -0.000001 0.000000 0.132197 -1.345459 11.222602 0.002563 0.188394 -1.561452 0.056007 0.878218 -7.297642 -0.000000 -0.000001 -0.000001 -0.589736 2.861687 9.966588 -0.006837 -3.717211 -3.305118 0.083534 1.071471 -8.915559 0.000000 -0.000003 -0.000002 0.954215 2.724161 -4.491639 -1.169187 59.842784 -13.484544 -0.000013 59.439161 0.000015 -12.353921 0.134837 3.572931 0.365530 -2.228863 18.624881 0.321546 -2.093946 17.458633 0.287894 -1.983829 16.512718 0.000001 0.000002 0.000000 -2.048920 -12.558895 -8.004012 5.443093 -17.651231 -0.837875 -0.473925 -8.858973 -3.028529 0.000000 -0.000000 0.000000 0.180799 -1.578409 13.068319 0.144260 -1.411842 11.667843 0.127526 -1.328214 10.967681 0.000002 -0.000002 0.000001 0.689471 -3.023613 25.685457 0.630185 -2.897285 24.537537 0.577341 -2.778761 23.470355 -0.000001 0.000000 0.000000 1.031016 -3.648539 31.549569 0.928337 -3.476120 29.897060 0.878878 -3.388774 29.071040 -0.000002 0.000001 -0.000001 -3.334155 4.909958 -5.563370 33.841333 4.881033 -2.807043 -20.715976 -2.480902 6.114719 -0.006797 0.000009 -0.000002 -0.000000 0.000002 0.000000 -10.521994 -9.406893 -3.823484 39.917002 9.108562 -8.319275 -20.082491 5.959232 3.780349 -4.642343 0.000007 -0.000001 -0.000000 0.000002 -0.000000 
13.022032 191.424805 12.940973 -167.894027 41.481064 173.955602 2.313247 -1.857036 11.070043 2.413816 -0.224646 -1.951543 2.402866 -0.281205 -1.955906 -1.759828 6.737244 -0.680286 12.218758 32.935018 -19.153005 -0.000000 -0.000000 -0.000001 -0.000000 -0.000000 -0.000001 -0.000000 -0.000000 -0.000001 5.610087 -15.404363 -4.163016 16.860187 7.071070 -47.858603 0.000012 -34.224961 0.000009 29.897056 -12.698309 28.678171 0.165110 -1.501801 12.547395 0.000625 0.092778 -0.768559 0.027715 0.618443 -5.131930 -0.000000 0.000001 0.000001 -1.709306 11.927715 7.384733 4.614800 16.216785 1.362217 0.156760 9.826684 3.328260 -0.000002 -0.000000 -0.000001 0.219176 -1.726796 14.466435 0.000003 0.000029 0.000031 0.010444 0.379942 -3.149945 -0.000003 0.000001 -0.000000 0.109952 -1.228107 10.232380 0.004000 0.235037 -1.947790 0.059466 0.904810 -7.519776 -0.000001 -0.000001 -0.000001 -0.538861 2.991756 8.970228 -0.003101 -3.657209 -3.803018 0.088250 1.101153 -9.164721 -0.000003 -0.000001 -0.000002 0.550721 0.951786 -5.584531 -2.777881 56.825159 -14.674928 0.000005 72.428036 -0.000011 -11.849098 -2.513288 2.689678 0.354904 -2.197108 18.349488 0.316369 -2.077410 17.316498 0.285534 -1.975857 16.444440 0.000002 -0.000000 0.000004 -2.048922 -12.558914 -8.004021 5.443096 -17.651232 -0.837876 -0.473925 -8.858972 -3.028532 0.000001 -0.000003 0.000002 0.173639 -1.547260 12.805547 0.141045 -1.396153 11.536487 0.126001 -1.320369 10.902012 0.000001 -0.000001 -0.000003 0.674068 -2.991426 25.391992 0.622550 -2.880536 24.386089 0.573816 -2.770634 23.397610 -0.000001 -0.000002 0.000001 1.011367 -3.616415 31.239479 0.918961 -3.459775 29.742069 0.874297 -3.380554 28.993576 -0.000001 -0.000000 0.000000 -4.425411 4.703937 -6.002517 33.204087 3.156978 -2.883752 -19.599650 -2.470749 6.574281 -0.000048 -0.000000 -0.000001 -0.000000 -0.000000 -0.000000 -11.190978 -9.366748 -4.417401 39.725770 9.241690 -8.281288 -19.892979 2.881283 3.586660 -4.155701 0.000009 -0.000000 -0.000000 -0.000000 -0.000000 
12.584977 191.965363 15.055726 -169.828460 37.879932 176.893225 4.027678 -2.661298 11.574614 2.182033 -0.347590 -2.082171 2.164104 -0.408769 -2.088653 -3.783948 7.181345 -1.683780 11.144500 33.046033 -20.737078 0.000000 0.000000 0.000000 0.000000 0.000000 0.000000 0.000000 0.000000 0.000000 5.832458 -16.118756 -3.361769 12.447969 5.182697 -45.751216 -0.000007 -22.374066 -0.000005 31.061142 -16.547807 24.520989 0.120198 -1.283522 10.699690 0.001071 0.121968 -1.010857 0.033522 0.680090 -5.644692 0.000001 -0.000001 -0.000001 -1.709307 11.927718 7.384733 4.614802 16.216787 1.362217 0.156762 9.826684 3.328258 -0.000001 -0.000001 -0.000001 0.166652 -1.508691 12.606087 0.000001 -0.000032 0.000035 0.013758 0.435930 -3.614685 -0.000002 -0.000001 -0.000001 0.073902 -1.008182 8.385057 0.007493 0.321904 -2.668609 0.066189 0.954356 -7.934233 -0.000001 0.000001 -0.000001 -0.437907 3.231913 7.110608 0.005266 -3.545338 -4.731932 0.097412 1.156476 -9.629611 0.000000 -0.000000 0.000002 0.241754 -0.378615 -6.298275 -6.209538 53.475522 -13.330308 -0.000033 84.269528 0.000046 -9.239117 -6.884637 2.782420 0.330615 -2.122538 17.704967 0.304425 -2.038722 16.983861 0.280054 -1.957210 16.284655 0.000000 0.000001 0.000001 -2.048920 -12.558925 -8.004019 5.443094 -17.651229 -0.837876 -0.473924 -8.858976 -3.028529 0.000001 -0.000002 -0.000000 0.157426 -1.474132 12.190566 0.133649 -1.359433 11.229036 0.122482 -1.301980 10.748290 0.000001 -0.000000 0.000001 0.638686 -2.915829 24.705178 0.604855 -2.841237 24.031638 0.565608 -2.751612 23.227353 -0.000001 -0.000000 0.000001 0.966080 -3.540827 30.513815 0.897199 -3.421467 29.379342 0.863630 -3.361269 28.812207 -0.000001 -0.000001 -0.000001 -5.516613 4.390161 -6.877489 31.812610 1.281371 -3.041104 -17.943880 -2.281583 7.064952 -0.000047 0.000012 0.000003 -0.000000 0.000000 0.000000 -12.348354 -9.338817 -5.215331 39.502512 9.248408 -8.548363 -19.503559 0.140082 3.491820 -3.885185 0.000012 0.000001 0.000000 0.000001 0.000000 
12.370568 192.538467 17.363346 -171.804734 35.296761 179.799252 5.309143 -2.813751 11.598339 1.951839 -0.381976 -2.402681 1.930894 -0.445962 -2.408003 -5.598081 7.634918 -2.584225 9.777056 33.323721 -21.386840 0.000000 -0.000000 -0.000001 0.000000 -0.000000 -0.000001 0.000000 -0.000000 -0.000001 5.972879 -16.541555 -2.222603 9.359993 5.322149 -43.585688 -0.000011 -13.429416 -0.000006 31.322462 -18.430022 17.992706 0.067062 -0.960711 7.987385 0.002503 0.185976 -1.541350 0.041174 0.753370 -6.255581 -0.000000 -0.000001 -0.000005 -1.709311 11.927713 7.384731 4.614799 16.216783 1.362216 0.156764 9.826683 3.328251 0.000002 0.000002 -0.000003 0.102441 -1.185704 9.875325 -0.000001 -0.000018 -0.000084 0.019436 0.518077 -4.297047 0.000000 0.000001 0.000002 0.033861 -0.683485 5.673209 0.014615 0.449431 -3.726985 0.076718 1.027026 -8.542795 -0.000001 -0.000000 0.000002 -0.275607 3.578332 4.378647 0.020833 -3.381410 -6.095619 0.111667 1.237582 -10.312229 -0.000001 -0.000000 0.000001 0.087368 -1.055587 -6.716896 -9.953733 49.201650 -10.565090 0.000348 94.932676 -0.000400 -4.507854 -12.483331 3.235430 0.309188 -2.054242 17.117176 0.293732 -2.003410 16.680490 0.275095 -1.940158 16.138921 0.000003 -0.000002 0.000001 -2.048916 -12.558911 -8.004018 5.443094 -17.651229 -0.837873 -0.473925 -8.858972 -3.028532 0.000001 0.000003 -0.000000 0.143322 -1.407297 11.629698 0.127079 -1.325923 10.948617 0.119324 -1.285201 10.608094 0.000001 -0.000001 -0.000001 0.607204 -2.846472 24.078855 0.588942 -2.805283 23.708384 0.558183 -2.734281 23.072077 -0.000000 -0.000001 0.000003 0.925607 -3.471364 29.852059 0.877542 -3.386399 29.048525 0.853970 -3.343685 28.646826 0.000001 -0.000002 0.000001 -6.792090 4.155440 -7.836873 30.075389 0.714245 -3.438516 -16.180947 -1.971844 7.169489 -0.000050 0.000005 -0.000003 -0.000000 -0.000002 -0.000000 -14.160851 -9.058174 -5.999253 39.229810 7.570297 -8.943852 -18.964357 -0.851768 3.912015 -3.434060 -0.000002 0.000003 -0.000000 -0.000000 -0.000000 
